<svg xmlns="http://www.w3.org/2000/svg" width="256" height="256" viewBox="0 0 256 256">
  <defs>
    <style>
      .cls-1 {
        fill-rule: evenodd;
      }
    </style>
  </defs>
  <path id="_" data-name="?" class="cls-1" d="M102.411,72.087c6.734-9.146,15.5-15.408,26.71-15.324,8.774,0.075,16.051,3.963,22.107,9.948,6.728,6.923,10.641,15.127,11.178,24.253,0.359,6.181-1.515,11.718-5.722,17.325-2.718,3.471-7.433,8.143-14.238,14.471-12.5,11.538-18.872,26.423-18.761,43.733q4.019,0.077,8.036.024c0.027-10.994,2.393-20.25,7.12-27.655,2.284-3.819,6.945-9,13.875-14.924,6.362-5.38,10.64-9.445,12.916-12.751,3.622-5.07,5.164-10.9,4.62-18.176-0.821-10.8-5.708-20.94-13.713-30.1-7.356-8.261-16.157-14.089-26.865-14.283-13.465-.223-24.013,8.159-32.3,19.3-8.227,11.34-13.384,23.489-14.193,36.788q3.99-.894,7.981-1.631A56.647,56.647,0,0,1,102.411,72.087Zm30.707,133.146q0.117-11.024.2-22.048-5.286.166-10.571-.028,0.093,11.018.229,22.035A96.727,96.727,0,0,0,133.118,205.233Z"/>
</svg>
